<?xml version="1.0" encoding="UTF-8"?>
<!DOCTYPE svg PUBLIC "-//W3C//DTD SVG 1.1//EN" "http://www.w3.org/Graphics/SVG/1.1/DTD/svg11.dtd">
<!-- Creator: CorelDRAW 2020 (64-Bit) -->
<svg xmlns="http://www.w3.org/2000/svg" xml:space="preserve" width="11.3866in" height="8.07987in" version="1.1" style="shape-rendering:geometricPrecision; text-rendering:geometricPrecision; image-rendering:optimizeQuality; fill-rule:evenodd; clip-rule:evenodd"
viewBox="0 0 1080.23 766.53"
 xmlns:xlink="http://www.w3.org/1999/xlink"
 xmlns:xodm="http://www.corel.com/coreldraw/odm/2003">
 <defs>
  <style type="text/css">
   <![CDATA[
    .fil0 {fill:#FEFEFE}
    .fil1 {fill:#F57E29}
   ]]>
  </style>
 </defs>
 <g id="Layer_x0020_1">
  <metadata id="CorelCorpID_0Corel-Layer"/>
  <path class="fil0" d="M-0 674.58l28.05 0 6.65 -14.54 57.35 0 6.65 14.54 30.55 0 -64.62 -129.54 -2.49 0 -62.13 129.54zm589.28 -279.81l-0.02 0 -0 0c-4.39,0.79 -8.89,1.68 -13.54,2.5 -1.85,0.34 -3.79,0.63 -5.63,0.93 -1.87,0.3 -3.77,0.59 -5.69,0.85 -3.84,0.53 -7.76,0.97 -11.72,1.2 -3.95,0.23 -7.98,0.26 -11.88,-0.11 -3.9,-0.35 -7.66,-1.12 -10.76,-2.38 7.47,0.92 14.75,0.08 21.76,-1.23 3.5,-0.64 6.97,-1.46 10.45,-2.31 3.45,-0.85 7.07,-1.76 10.5,-2.64 6.92,-1.81 14.09,-3.77 21.97,-5.18 3.93,-0.72 8.04,-1.24 12.28,-1.54 4.41,-0.31 8.95,-0.1 13.12,0.39 4.19,0.52 8.02,1.35 11.59,2.18l2.23 0.57 7.87 1.99c1.64,0.42 3.13,0.69 4.69,1.02l2.39 0.38c0.78,0.15 1.59,0.25 2.43,0.34 0.82,0.09 1.66,0.22 2.48,0.29l2.56 0.2c0.86,0.09 1.72,0.12 2.6,0.16 0.86,0.05 1.74,0.1 2.62,0.12 1.69,0.05 3.4,0.07 5.12,0.07l0 0c-4.91,2.13 -13.91,3.39 -32.01,0.02 -17.82,-3.32 -44.55,2 -45.38,2.16zm-219.92 57.91l-104.37 0 55.18 -91.47c19.7,2.58 38.57,8.46 59.91,11.88 10.69,1.71 22.06,2.76 33.64,2.26 1.66,-0.07 0.84,-0.16 2.45,-0.26l-46.82 77.59zm140.36 -41.61l0.02 0 0 0c5.43,0.27 10.99,0.61 16.74,0.87 2.29,0.12 4.68,0.18 6.95,0.26 2.31,0.08 4.65,0.14 7.02,0.18 4.73,0.09 9.55,0.09 14.4,-0.11 4.83,-0.19 9.75,-0.58 14.47,-1.31 4.72,-0.71 9.23,-1.79 12.89,-3.24 -9.01,1.59 -17.96,1.58 -26.64,1.11 -4.33,-0.22 -8.64,-0.6 -12.95,-1.02 -4.29,-0.42 -8.78,-0.87 -13.05,-1.31 -8.61,-0.92 -17.54,-1.96 -27.27,-2.43 -4.87,-0.25 -9.92,-0.3 -15.11,-0.13 -5.4,0.17 -10.92,0.83 -15.96,1.69 -5.06,0.9 -9.65,2.03 -13.92,3.15l-2.66 0.75 -9.4 2.59c-1.96,0.54 -3.75,0.94 -5.62,1.4l-2.88 0.59c-0.93,0.21 -1.92,0.39 -2.93,0.55 -0.99,0.16 -2,0.37 -2.99,0.52l-3.1 0.44c-1.04,0.17 -2.08,0.28 -3.15,0.41 -1.04,0.13 -2.11,0.27 -3.18,0.37 -2.06,0.22 -4.14,0.41 -6.23,0.59l0 0c6.19,1.42 17.28,1.64 39.02,-3.24 21.4,-4.8 54.49,-2.74 55.52,-2.67zm55.72 -38.51l6.51 -0.7c4.38,-0.5 8.81,-0.98 13.29,-1.4 8.95,-0.82 18.16,-1.37 27.22,-0.81 4.52,0.32 9,0.87 13.21,1.9 4.22,0.99 8.16,2.45 11.5,4.35 -8.31,-1.83 -16.86,-1.99 -25.37,-1.32 -8.53,0.69 -17.04,2.1 -25.66,3.64 -4.31,0.76 -8.66,1.58 -13.07,2.32 -4.44,0.77 -8.86,1.49 -13.56,2.03 -9.55,1.12 -19.02,0.95 -27.97,0.19 -46.8,-4 -72.06,-11.42 -109.51,-7.51 42.5,-17.21 93.02,2.42 143.39,-2.7zm251.09 80.68l-110.52 0 -56.05 -93.46c20.35,-8.31 42.69,-21.9 58.63,-42.16 5.11,-5.82 8.71,-12 11.29,-18.34l92.55 153.41 4.09 0.55zm-278.44 -453.23l124.66 204.55c-1.31,0.57 -2.63,1.14 -3.97,1.69 -26.12,10.81 -55.29,20.6 -83.68,29.42l-36.95 -61.73 -120.65 25.97 120.59 -199.89zm209.43 675.36c36.63,0 66.09,-27 66.09,-65.71 0,-38.71 -29.46,-65.71 -66.09,-65.71 -36.44,0 -65.9,27 -65.9,65.71 0,38.71 29.46,65.71 65.9,65.71zm0 -12.27c-29.83,0 -51.74,-22.85 -51.74,-53.44 0,-30.59 21.9,-53.44 51.74,-53.44 30.02,0 51.93,22.85 51.93,53.44 0,30.59 -21.9,53.44 -51.93,53.44zm251.9 10.76l80.82 0 0 -12.09 -67.22 0 0 -32.1 57.59 0 0 -11.9 -57.59 0 0 -60.24 64.58 0 0 -12.08 -78.17 0 0 128.4zm-158.05 0l13.22 0 0 -84.78c0,-5.85 -0.75,-14.73 -0.75,-14.73 0,0 5.1,8.31 9.25,13.41l38.33 49.09 2.27 0 38.9 -49.09c4.15,-5.1 9.06,-13.41 9.06,-13.41 0,0 -0.57,8.87 -0.57,14.73l0 84.78 13.22 0 0 -129.91 -2.08 0 -59.29 74.59 -59.67 -74.59 -1.89 0 0 129.91zm-283.43 0l13.59 0 0 -43.62 68.73 0 0 43.62 13.59 0 0 -128.4 -13.59 0 0 72.32 -68.73 0 0 -72.32 -13.59 0 0 128.4zm-157.52 0.73l28.05 0 6.65 -14.54 57.35 0 6.65 14.54 30.55 0 -64.62 -129.54 -2.49 0 -62.13 129.54zm44.47 -36.63l10.18 -22.28c4.16,-9.06 8.31,-23.04 8.31,-23.04 0,0 4.36,13.97 8.52,23.04l10.18 22.28 -37.19 0zm-141.72 -25.87c0.83,-6.42 1.87,-15.29 1.87,-21.53l0 -44.37 -29.09 0 0 128.4 29.09 0 0 -35.5 13.71 -14.92 37.61 50.42 35.12 0 -53.2 -70.24 47.38 -58.16 -33.04 0 -37.4 45.89c-4.36,5.29 -8.73,13.22 -12.05,20.01zm-79.79 22.47c17.46,-7.17 27.22,-19.83 27.22,-39.84 0,-31.35 -23.69,-48.53 -63.17,-48.53l-39.07 0 0 128.4 29.09 0 0 -31.91 9.97 0c2.7,0 5.61,-0.19 8.31,-0.57l23.27 32.48 33.66 0 -29.3 -40.03zm-45.92 -14.92l0 -50.23 9.14 0c23.27,0 34.08,7.18 34.08,25.3 0,18.13 -10.39,24.93 -34.08,24.93l-9.14 0zm-132.99 18.32l10.18 -22.28c4.16,-9.06 8.31,-23.04 8.31,-23.04 0,0 4.36,13.97 8.52,23.04l10.18 22.28 -37.19 0z"/>
  <path class="fil1" d="M246.68 749.75c7.09,-2.99 10.84,-8.51 10.84,-16.55 0,-11.95 -8.37,-19.46 -23.35,-19.46l-13.55 0 0 52.11 8.45 0 0 -13.41 5.1 0c1.51,0 3.03,-0.15 4.54,-0.31l9.72 13.72 9.72 0 -11.48 -16.09zm162.71 -536.42l119.07 -24.35 -42.73 70.89c-39.3,8.73 -77.18,14.89 -116.02,19.24l39.68 -65.78zm-119.71 129.95c7.07,-1.12 14.35,-1.96 21.76,-2.45 1.21,-0.11 2.45,-0.18 3.66,-0.24 2.97,-0.16 5.97,-0.27 9,-0.34 -0.76,-0.98 -1.31,-2.05 -1.65,-3.14 -0.97,-3.39 -2.59,-8.73 -4.98,-14.48 28.34,0.94 48.65,-5.79 48.65,-5.79 0,0 -33.47,3.47 -42.92,1.81 -5.91,-1.04 -8.98,-3.81 -10.45,-5.74 -0.39,-0.68 -0.78,-1.34 -1.19,-2l0 -0c-3.47,-5.62 -7.78,-10.63 -13.06,-13.55 116.44,-4.43 250,-33.13 358.85,-78.17 11.21,-4.64 21.38,-9.97 31.21,-15.5 -0.75,1.74 -1.41,3.44 -2,5.04 -3,7.98 -4.48,16.23 -5.66,24.5 -0.48,3.1 -3.17,5.97 -7.59,7.83 -50.04,21.2 -104.7,37.86 -162.3,49.23 59.46,-10.14 116.19,-25.86 168.37,-46.39 -1.11,7.65 -2.38,15.25 -4.93,22.65 -1.31,3.94 -5.52,7.33 -11.66,9.32 -32.66,10.77 -66.87,19.73 -102.12,26.69 37.73,-6.44 74.39,-15.12 109.46,-25.86 -2.17,4.06 -4.86,8.05 -8.24,11.9 -9.04,10.32 -22.28,19.75 -38.52,26.73 20.28,-7.11 36.76,-18.04 47.42,-30.17 3.17,-3.61 5.69,-7.34 7.8,-11.1 0.76,-1.43 1.48,-2.86 2.14,-4.3 4.35,-9.52 6.14,-19.46 7.59,-29.43l0.86 -6.2c2.48,-12.02 1.59,-24.03 10.28,-34.52 8.95,-10.89 52.29,-18.79 36.9,-3.29 -10.94,11.02 -16.09,28.6 -19.76,62.78 -1.69,15.98 -5,32.64 -17.73,47.13 -57.08,72.55 -147.61,53.99 -234.43,48.16 -43.52,-2.92 -59.1,14.24 -104.65,0.85 -2.72,-0.78 -5.14,-1.32 -7.66,-1.96l-3.93 -0.78c-1.31,-0.29 -2.62,-0.51 -4.04,-0.71 -1.34,-0.2 -2.69,-0.47 -4.07,-0.65l-4.21 -0.51c-1.38,-0.2 -2.83,-0.31 -4.24,-0.44 -1.45,-0.13 -2.87,-0.29 -4.35,-0.38 -11.59,-0.85 -23.66,-1 -35.83,-0.58 -10.9,0.31 -21.83,1.11 -32.97,2.1l-0.04 0c-1.34,0.09 -2.62,0.22 -3.97,0.33 10.9,-3.63 22.76,-6.4 35.18,-8.36zm534.37 422.57l35.54 0 0 -7.13 -27.1 0 0 -10.65 23.03 0 0 -6.97 -23.03 0 0 -20.23 25.98 0 0 -7.13 -34.43 0 0 52.11zm-51.39 0l8.37 0 0 -44.98 16.1 0 0 -7.13 -40.56 0 0 7.13 16.1 0 0 44.98zm-79.92 0l8.13 0 3.11 -7.36 24.78 0 3.11 7.36 8.77 0 -23.75 -52.64 -0.96 0 -23.19 52.64zm14.1 -14.18l6.77 -16.25c1.35,-3.07 2.63,-7.74 2.63,-7.74 0,0 1.35,4.67 2.71,7.74l6.77 16.25 -18.89 0zm-54.5 14.18l8.37 0 0 -44.98 16.1 0 0 -7.13 -40.56 0 0 7.13 16.1 0 0 44.98zm-56.18 0.69c10.2,0 17.61,-5.29 17.61,-14.41 0,-8.35 -4.94,-12.49 -14.18,-16.4l-3.51 -1.53c-5.5,-2.3 -7.81,-4.06 -7.81,-7.97 0,-3.52 2.71,-6.05 7.01,-6.05 4.22,0 6.61,1.61 8.69,5.06l6.62 -3.91c-3.27,-5.6 -8.13,-8.2 -15.3,-8.2 -9,0 -15.22,5.52 -15.22,13.26 0,8.05 4.78,11.88 12.67,15.25l3.59 1.53c5.9,2.53 9.08,4.52 9.08,9.04 0,4.29 -3.9,7.13 -9.4,7.13 -6.61,0 -9.88,-3.22 -12.43,-7.28l-6.93 3.68c3.03,5.9 9.24,10.8 19.52,10.8zm-79.68 -0.69l35.54 0 0 -7.13 -27.1 0 0 -10.65 23.03 0 0 -6.97 -23.03 0 0 -20.23 25.98 0 0 -7.13 -34.43 0 0 52.11zm-94.82 0l33.47 0 0 -7.13 -25.02 0 0 -44.98 -8.45 0 0 52.11zm-74.58 0l8.13 0 3.11 -7.36 24.78 0 3.11 7.36 8.77 0 -23.75 -52.64 -0.96 0 -23.19 52.64zm14.1 -14.18l6.77 -16.25c1.35,-3.07 2.63,-7.74 2.63,-7.74 0,0 1.35,4.67 2.71,7.74l6.77 16.25 -18.89 0zm-74.5 14.18l35.54 0 0 -7.13 -27.1 0 0 -10.65 23.03 0 0 -6.97 -23.03 0 0 -20.23 25.98 0 0 -7.13 -34.43 0 0 52.11zm-57.61 -20.38l0 -24.6 4.78 0c10.6,0 15.06,4.52 15.06,12.34 0,7.74 -4.3,12.26 -15.06,12.26l-4.78 0z"/>
 </g>
</svg>
